<svg xmlns="http://www.w3.org/2000/svg" width="84" height="84" viewBox="0 0 84 84">
    <defs>
        <linearGradient id="0g2svcxw4a" x1="0%" x2="100%" y1="54.648%" y2="54.648%">
            <stop offset="0%" stop-color="#CAD80B"/>
            <stop offset="100%" stop-color="#6EBD06"/>
        </linearGradient>
    </defs>
    <g fill="none" fill-rule="evenodd">
        <g>
            <g>
                <path fill="#FFF" d="M0 0H84V84H0z"/>
                <g>
                    <g fill="#000">
                        <path d="M1.744 4.355C1.234 4.907.98 5.66.98 6.614c0 .953.255 1.706.765 2.259.51.552 1.188.828 2.034.828.533 0 1.014-.127 1.441-.382.428-.255.763-.616 1.007-1.084.243-.467.365-1.007.365-1.621 0-.614-.122-1.154-.365-1.622-.244-.467-.58-.828-1.007-1.083-.427-.255-.908-.383-1.44-.383-.847 0-1.525.277-2.035.829m3.737-1.098c.538.406.903.945 1.096 1.615V0h.966v10.48h-.966V8.356c-.193.67-.558 1.208-1.096 1.614-.538.406-1.188.61-1.951.61-.68 0-1.29-.161-1.827-.482-.538-.321-.956-.781-1.255-1.381C.15 8.117 0 7.417 0 6.614c0-.812.15-1.518.448-2.117.299-.6.715-1.058 1.248-1.374.533-.316 1.145-.475 1.834-.475.763 0 1.413.204 1.951.61M11.073 3.767c-.405.208-.734.527-.986.956-.253.43-.389.966-.407 1.608h5.322c.037-.633-.064-1.166-.303-1.6-.239-.435-.56-.756-.965-.964-.405-.207-.846-.311-1.324-.311-.487 0-.933.104-1.337.311m3.006 5.467c.46-.35.735-.821.827-1.416h1.02c-.138.821-.52 1.487-1.144 1.996-.626.51-1.416.765-2.372.765-.717 0-1.354-.158-1.91-.474-.556-.316-.99-.774-1.303-1.374-.312-.6-.469-1.305-.469-2.117s.157-1.518.47-2.117c.312-.6.746-1.058 1.302-1.374.556-.316 1.193-.475 1.91-.475.735 0 1.372.159 1.91.475.538.316.947.739 1.227 1.267.28.53.42 1.105.42 1.728 0 .265-.018.505-.054.723H9.68c.009.651.14 1.196.393 1.635.253.44.581.763.986.97.404.208.84.312 1.31.312.68 0 1.25-.175 1.71-.524M17.153 10.48L18.132 10.48 18.132 0 17.153 0zM28.605 3.463c.547.571.82 1.409.82 2.514v4.503h-.95V6.047c0-.84-.208-1.484-.621-1.933-.414-.448-.98-.673-1.696-.673-.754 0-1.354.248-1.8.744-.446.496-.669 1.225-.669 2.188v4.107h-.979V2.748h.98v1.897c.192-.66.542-1.166 1.047-1.515.506-.35 1.085-.524 1.738-.524.873 0 1.583.286 2.13.857M32.942 3.852c-.423.227-.763.574-1.02 1.041-.258.468-.387 1.041-.387 1.72 0 .68.129 1.252.386 1.715.258.462.598.807 1.02 1.033.424.227.883.34 1.38.34.487 0 .94-.113 1.358-.34.418-.226.756-.57 1.014-1.033.257-.463.386-1.034.386-1.714 0-.68-.13-1.253-.386-1.72-.258-.468-.596-.815-1.014-1.042-.418-.226-.871-.34-1.358-.34-.497 0-.956.114-1.38.34m3.303-.73c.566.317 1.01.775 1.33 1.375.323.6.484 1.305.484 2.117s-.161 1.515-.483 2.11c-.322.595-.765 1.053-1.33 1.374-.566.32-1.207.481-1.924.481-.717 0-1.36-.16-1.93-.481-.57-.321-1.019-.781-1.345-1.381-.327-.6-.49-1.3-.49-2.103 0-.812.163-1.518.49-2.117.326-.6.774-1.058 1.344-1.374.57-.316 1.214-.475 1.93-.475.718 0 1.359.159 1.924.475M41.284 3.06c.487-.303 1.08-.454 1.779-.454v1.076h-.317c-.726 0-1.329.201-1.807.602-.478.402-.717 1.055-.717 1.962v4.234h-.979V2.748h.98v1.6c.22-.557.574-.987 1.061-1.289" transform="translate(13 9) translate(2.86 50.04)"/>
                        <path d="M47.213 9.602v.878h-.896c-.726 0-1.269-.177-1.627-.53-.359-.355-.538-.952-.538-1.792V3.61h-1.144v-.863h1.144V.793h.98v1.955H47.2v.863H45.13v4.56c0 .548.097.924.29 1.127.193.203.533.304 1.02.304h.772zM50.233 3.767c-.404.208-.733.527-.986.956-.253.43-.388.966-.406 1.608h5.322c.037-.633-.064-1.166-.303-1.6-.24-.435-.561-.756-.965-.964-.405-.207-.846-.311-1.324-.311-.488 0-.933.104-1.338.311m3.006 5.467c.46-.35.736-.821.828-1.416h1.02c-.138.821-.52 1.487-1.145 1.996-.625.51-1.415.765-2.371.765-.717 0-1.354-.158-1.91-.474-.556-.316-.99-.774-1.303-1.374-.313-.6-.469-1.305-.469-2.117s.156-1.518.469-2.117c.312-.6.747-1.058 1.303-1.374.556-.316 1.193-.475 1.91-.475.735 0 1.372.159 1.91.475.537.316.946.739 1.227 1.267.28.53.42 1.105.42 1.728 0 .265-.018.505-.055.723h-6.232c.008.651.14 1.196.393 1.635.252.44.58.763.985.97.405.208.842.312 1.31.312.68 0 1.25-.175 1.71-.524" transform="translate(13 9) translate(2.86 50.04)"/>
                    </g>
                    <g fill="#000">
                        <path d="M0 .468L0 10.191 1.575 10.191 1.575 5.963 5.028 5.963 5.028 4.752 1.575 4.752 1.575 1.735 5.76 1.735 5.76.468zM9.365 4.145c-.34.184-.614.467-.822.847-.207.382-.31.847-.31 1.398 0 .56.103 1.029.31 1.405.208.377.481.657.822.84.34.184.714.276 1.119.276s.778-.092 1.119-.276c.34-.183.615-.463.822-.84.207-.376.31-.845.31-1.405 0-.55-.103-1.016-.31-1.398-.207-.38-.481-.663-.822-.847-.341-.183-.714-.275-1.119-.275s-.778.092-1.119.275m3.108-1.17c.59.312 1.05.762 1.381 1.35.332.587.498 1.276.498 2.065 0 .799-.166 1.492-.498 2.08-.331.588-.792 1.037-1.381 1.35-.59.312-1.252.468-1.989.468-.737 0-1.397-.156-1.982-.468-.585-.313-1.045-.765-1.381-1.357-.337-.592-.505-1.283-.505-2.073s.168-1.478.505-2.065c.336-.588.796-1.038 1.38-1.35.586-.312 1.246-.468 1.983-.468.737 0 1.4.156 1.989.468M18.385 2.913c.479-.29 1.031-.434 1.658-.434v1.708h-.47c-.69 0-1.246.167-1.665.503-.419.335-.628.888-.628 1.659v3.842h-1.575V2.603h1.575V4.09c.258-.495.626-.888 1.105-1.177M24.877 8.828v1.363h-.967c-.81 0-1.425-.195-1.844-.585-.42-.39-.629-1.04-.629-1.949V3.94h-1.09V2.603h1.09V.716h1.589v1.887h1.837v1.336h-1.837v3.746c0 .432.08.73.242.895.16.165.444.248.85.248h.759zM28.047 4.552c-.42.445-.629 1.058-.629 1.838s.21 1.394.629 1.839c.419.445.978.668 1.678.668.442 0 .838-.103 1.188-.31.35-.207.626-.498.829-.874.202-.377.304-.818.304-1.323 0-.495-.102-.934-.304-1.315-.203-.38-.48-.675-.83-.881-.35-.207-.745-.31-1.187-.31-.7 0-1.26.223-1.678.668m2.963-1.536c.488.34.833.79 1.036 1.35V2.603h1.574v7.588h-1.574V8.43c-.203.56-.548 1.01-1.036 1.35-.489.339-1.078.509-1.768.509-.664 0-1.255-.156-1.775-.468-.52-.312-.928-.762-1.223-1.35-.295-.588-.442-1.281-.442-2.08 0-.79.147-1.478.442-2.066.295-.587.702-1.037 1.223-1.35.52-.311 1.111-.468 1.775-.468.69 0 1.28.17 1.768.51M35.347 10.191L36.921 10.191 36.921 0 35.347 0zM43.89 4.745c-.189-.336-.447-.583-.774-.744-.327-.16-.683-.241-1.07-.241-.617 0-1.133.188-1.547.564-.415.377-.64.933-.677 1.667h4.323c.019-.496-.066-.911-.255-1.246m1.789 1.962h-5.857c.028.78.244 1.36.65 1.735.404.377.906.565 1.505.565.525 0 .969-.133 1.333-.4.363-.266.587-.62.67-1.06h1.685c-.101.533-.313 1.005-.636 1.419-.322.413-.74.737-1.257.97-.515.235-1.09.352-1.726.352-.737 0-1.388-.156-1.955-.468-.566-.312-1.01-.762-1.333-1.35-.322-.588-.483-1.281-.483-2.08 0-.79.16-1.478.483-2.066.323-.587.767-1.037 1.333-1.35.567-.311 1.218-.468 1.955-.468.746 0 1.397.154 1.954.462.557.308.986.73 1.285 1.267.3.537.449 1.136.449 1.797 0 .257-.019.482-.055.675M48.22 8.869L52.129 8.869 52.129 10.191 46.48 10.191 46.48 8.938 50.182 3.925 46.576 3.925 46.576 2.603 51.991 2.603 51.991 3.856zM55.12 4.552c-.42.445-.629 1.058-.629 1.838s.21 1.394.629 1.839c.419.445.978.668 1.678.668.442 0 .838-.103 1.188-.31.35-.207.626-.498.829-.874.202-.377.304-.818.304-1.323 0-.495-.102-.934-.304-1.315-.203-.38-.48-.675-.83-.881-.35-.207-.745-.31-1.187-.31-.7 0-1.26.223-1.678.668m2.963-1.536c.488.34.833.79 1.036 1.35V2.603h1.574v7.588H59.12V8.43c-.203.56-.548 1.01-1.036 1.35-.489.339-1.078.509-1.768.509-.664 0-1.255-.156-1.775-.468-.52-.312-.928-.762-1.223-1.35-.295-.588-.442-1.281-.442-2.08 0-.79.147-1.478.442-2.066.295-.587.702-1.037 1.223-1.35.52-.311 1.111-.468 1.775-.468.69 0 1.28.17 1.768.51" transform="translate(13 9) translate(0 37.172)"/>
                    </g>
                    <path fill="url(#0g2svcxw4a)" d="M43.886 6.967c1.734 2.542 2.748 5.613 2.748 8.92 0 7.239-4.858 13.347-11.5 15.262-2.227-3.403-2.37-6.664-2.37-6.703l-.001-.017c-.295-4.995 3.599-8.134 3.637-8.164l.02-.017c4.634-3.979 6.618-7.196 7.466-9.281zm-17.238 8.131l-.085.108-11.778-.072c.066-1.408.316-2.769.726-4.058l15.258.093c-.69.634-1.167 1.042-1.251 1.113-.175.131-1.516 1.16-2.87 2.816zm-2.913 7.133c-.008.182-.05 1.335.199 2.949l-6.188-.043c-.848-1.178-1.538-2.477-2.04-3.866l8.08.056c-.033.303-.05.605-.05.904zm11.915-6.892c-.3.238-4.403 3.615-4.08 9.153.01.253.169 3.475 2.335 6.959-.635.13-1.284.22-1.943.272-3.53-4.103-3.065-8.732-3.06-8.778l.004-.04v-.04c-.105-5.002 3.906-7.992 3.946-8.02l.02-.016c6.544-5.202 8.076-9.165 8.434-10.797.621.553 1.199 1.153 1.726 1.795-.134.42-.33.923-.617 1.504-1.56 3.154-4.538 6.094-6.765 8.008zm.204-9.537c-1.195 1.526-2.629 3.017-3.831 4.185l-16.08-.099c.627-1.531 1.486-2.943 2.535-4.192l17.376.106zm-10.16 10.59c-.836 1.26-1.41 2.546-1.712 3.818l-8.633-.06c-.341-1.222-.54-2.504-.576-3.826l10.92.067zM38.147 1.838c-.249.86-.763 1.811-1.423 2.778l-17.146-.104C22.45 1.72 26.373 0 30.7 0c2.69 0 5.225.666 7.447 1.84zM18.634 26.261l5.507.039c.314 1.447.863 3.121 1.814 4.756-2.875-.893-5.4-2.576-7.32-4.795zm9.077-3.408c-.05.505-.355 4.786 2.759 8.917-.963-.014-1.906-.113-2.82-.29-2.943-4.134-2.724-9.149-2.722-9.202l.001-.032c0-5.023 5.264-8.981 5.317-9.02l.03-.024c.313-.264 7.403-6.273 8.928-10.751.35.22.69.453 1.021.699 0 .014-.002.023-.002.023l-.002.055c0 .01-.023 1.082-1.02 2.917-1.677 3.092-4.765 5.918-7.064 7.746-.308.226-4.522 3.434-4.426 8.962z" transform="translate(13 9)"/>
                </g>
            </g>
        </g>
    </g>
</svg>
